<?xml version="1.0" encoding="UTF-8"?>
<svg version="1.1" xmlns="http://www.w3.org/2000/svg" width="570" height="515">
<path d="M0 0 C188.1 0 376.2 0 570 0 C570 169.95 570 339.9 570 515 C381.9 515 193.8 515 0 515 C0 345.05 0 175.1 0 0 Z " fill="#FAF9F5" transform="translate(0,0)"/>
<path d="M0 0 C1.80621338 1.30773926 1.80621338 1.30773926 3.70410156 3.03320312 C4.40563354 3.66991943 5.10716553 4.30663574 5.82995605 4.96264648 C9.37175287 8.28787509 12.85143268 11.66888068 16.296875 15.09375 C17.43095795 16.21928284 17.43095795 16.21928284 18.58795166 17.36755371 C20.17248197 18.94270471 21.75561547 20.51926199 23.33740234 22.09716797 C25.75041219 24.50041052 28.17388838 26.89277036 30.59765625 29.28515625 C32.14388668 30.82486081 33.68948174 32.36520377 35.234375 33.90625 C35.9542157 34.6137439 36.6740564 35.32123779 37.41571045 36.0501709 C42.29944424 40.95563091 46.29303596 45.46517982 47.6875 52.4375 C46.67250099 57.69704033 43.67393526 60.25865308 40 64 C38.49313605 65.66046344 36.99333673 67.32736041 35.5 69 C34.35337891 70.27037109 34.35337891 70.27037109 33.18359375 71.56640625 C31.29151315 73.67511146 29.42094242 75.79919801 27.5625 77.9375 C23.89861185 82.14671104 20.13087392 86.25866203 16.36328125 90.375 C14.39199861 92.56458998 12.49647853 94.78829824 10.625 97.0625 C7.32910677 100.75076147 5.63669963 101.81467644 0.72265625 102.37109375 C-8.98116835 102.54715033 -8.98116835 102.54715033 -13.375 100.1875 C-15.82668508 95.37842542 -15.89147008 91.28514406 -15 86 C-13.01046164 80.46219048 -10.1079781 75.24963252 -6 71 C-5.34 71 -4.68 71 -4 71 C-3.34 69.68 -2.68 68.36 -2 67 C-9.72286742 66.89848176 -17.44556239 66.82848432 -25.16894531 66.78027344 C-27.79563833 66.76017285 -30.42228669 66.73288796 -33.04882812 66.69824219 C-36.82693512 66.64965836 -40.60444984 66.62701491 -44.3828125 66.609375 C-45.55490265 66.58872986 -46.7269928 66.56808472 -47.93460083 66.54681396 C-55.79557339 66.54465623 -59.12700897 67.43075332 -64.88647461 72.73852539 C-69.67442221 78.18856505 -73.12655672 84.06858045 -76.5625 90.4375 C-77.79013244 92.67070055 -79.01800386 94.90376973 -80.24609375 97.13671875 C-80.86726074 98.27415527 -81.48842773 99.4115918 -82.12841797 100.58349609 C-85.09145528 105.99241132 -88.10804894 111.37102767 -91.125 116.75 C-91.99705078 118.30811401 -91.99705078 118.30811401 -92.88671875 119.89770508 C-97.05783339 127.34386952 -101.27320783 134.76370224 -105.52075195 142.16650391 C-108.16457994 146.77677542 -110.78986382 151.39652236 -113.390625 156.03125 C-113.96159912 157.04751465 -114.53257324 158.0637793 -115.12084961 159.11083984 C-116.20760401 161.04720438 -117.29195785 162.98491924 -118.37329102 164.92431641 C-121.03196715 169.65796318 -123.7638967 174.34079857 -126.609375 178.96484375 C-127.15174805 179.847771 -127.69412109 180.73069824 -128.25292969 181.64038086 C-131.13949645 185.53902085 -134.77321919 187.74523356 -139 190 C-139.74121094 190.41121094 -140.48242188 190.82242188 -141.24609375 191.24609375 C-144.30526468 192.86829632 -146.49362889 194 -150 194 C-149.84063965 194.58015869 -149.6812793 195.16031738 -149.51708984 195.75805664 C-146.66749991 208.11300675 -149.07902828 220.52341287 -155.3515625 231.328125 C-160.94541016 239.51576794 -168.8190496 244.28243469 -177.8125 248.0546875 C-179.9355225 248.81265877 -179.9355225 248.81265877 -181 250 C-181.12600143 252.64545737 -181.18868637 255.26331912 -181.203125 257.91015625 C-181.20882507 258.71102158 -181.21452515 259.5118869 -181.22039795 260.33702087 C-181.22986776 262.03936435 -181.23638976 263.74172632 -181.24023438 265.4440918 C-181.24986953 268.02751733 -181.2808433 270.61012321 -181.3125 273.19335938 C-181.31903707 274.84895362 -181.32428477 276.50455355 -181.328125 278.16015625 C-181.3404718 278.92505875 -181.3528186 279.68996124 -181.36553955 280.4780426 C-181.33957628 286.85346367 -180.34293743 292.26539227 -176.11769104 297.19697571 C-171.32885383 299.9664579 -166.76486115 299.57047468 -161.32495117 299.54589844 C-160.144039 299.55623611 -158.96312683 299.56657379 -157.74642944 299.57722473 C-154.51733487 299.60162971 -151.28877865 299.60849035 -148.05961013 299.60750484 C-144.68160564 299.61063748 -141.3037729 299.63626288 -137.92585754 299.65948486 C-131.53344422 299.70002184 -125.14113284 299.72038007 -118.74861079 299.73345876 C-111.46921914 299.74933668 -104.19000079 299.78775556 -96.91070974 299.82805204 C-81.9405306 299.91041934 -66.97036924 299.96453116 -52 300 C-51.86118408 299.2265625 -51.72236816 298.453125 -51.5793457 297.65625 C-50.19078289 291.28980945 -45.39553035 284.7094968 -41 280 C-40.34 280 -39.68 280 -39 280 C-39 279.34 -39 278.68 -39 278 C-25.03143157 270.56864212 -15.35274854 267.35799595 0.4375 271.5625 C13.31682 275.80509953 21.26509201 284.2461945 27.6015625 295.9609375 C32.74221177 307.36226577 32.76249667 319.8489143 28.875 331.625 C26.62107743 337.11418783 23.99763017 341.62728354 20 346 C19.48824219 346.60199219 18.97648437 347.20398438 18.44921875 347.82421875 C11.43978382 355.53627006 2.31727813 359.94855764 -8 361 C-8.78890625 361.0825 -9.5778125 361.165 -10.390625 361.25 C-22.15856895 361.85737775 -34.21444463 357.02860098 -42.9609375 349.2578125 C-47.62776415 344.34643598 -54 335.99139387 -54 329 C-54.63076667 329.00276538 -55.26153334 329.00553076 -55.91141415 329.00837994 C-71.28641269 329.07474313 -86.66136114 329.12433072 -102.03646755 329.15543652 C-109.47187392 329.17088034 -116.90718445 329.19192208 -124.3425293 329.22631836 C-130.82605925 329.2562971 -137.30951977 329.27559305 -143.79311711 329.28226548 C-147.22354391 329.28616347 -150.65377213 329.29527178 -154.08413506 329.31719017 C-157.92136201 329.33901801 -161.75817977 329.34196459 -165.59545898 329.34057617 C-167.28616013 329.35675491 -167.28616013 329.35675491 -169.01101685 329.3732605 C-180.84441912 329.32703561 -188.40258068 326.15802822 -197 318 C-203.38688192 310.92929774 -208.22652926 302.68298993 -208.03076172 292.99121094 C-208.01520233 291.99627625 -207.99964294 291.00134155 -207.98361206 289.97625732 C-207.96581696 288.90643616 -207.94802185 287.83661499 -207.9296875 286.734375 C-207.91878533 284.45964813 -207.91107337 282.18490414 -207.90625 279.91015625 C-207.8983968 276.32958903 -207.87506758 272.75313284 -207.79785156 269.17333984 C-206.67922632 255.67253293 -206.67922632 255.67253293 -211.38598633 243.76123047 C-214.18526453 241.76324129 -216.89046141 240.43763387 -220 239 C-230.00510002 229.03228168 -232.34007519 217.09446114 -232.38500977 203.54394531 C-232.2675027 195.75672044 -231.09763137 189.73256395 -227 183 C-226.48050781 182.11183594 -225.96101563 181.22367188 -225.42578125 180.30859375 C-219.97025705 171.77559436 -212.84847731 165.7666975 -203.1328125 162.66796875 C-190.3006116 159.93192591 -179.60090115 162.41652389 -168 168 C-167.34 168.66 -166.68 169.32 -166 170 C-160.6440324 169.73873329 -155.4653083 167.93880151 -151 165 C-148.38902173 161.8276669 -146.60358478 158.34174455 -144.75 154.6875 C-143.64002269 152.61420855 -142.52932392 150.5413032 -141.41796875 148.46875 C-140.85770996 147.40269531 -140.29745117 146.33664063 -139.72021484 145.23828125 C-136.93603262 139.99709576 -133.99578235 134.84622138 -131.0625 129.6875 C-130.28374512 128.30340942 -130.28374512 128.30340942 -129.48925781 126.89135742 C-126.53190498 121.64172289 -123.49757246 116.44893582 -120.36791992 111.30004883 C-118.40323544 107.99658774 -116.58463265 104.6193332 -114.7578125 101.23828125 C-112.57022678 97.20826223 -110.35030544 93.19678409 -108.125 89.1875 C-107.73860352 88.48947266 -107.35220703 87.79144531 -106.95410156 87.07226562 C-104.28096585 82.25843919 -101.5619739 77.4718498 -98.82763672 72.69262695 C-98.27395668 71.72430813 -98.27395668 71.72430813 -97.70909119 70.73642731 C-96.80624216 69.15751448 -95.90314629 67.57874281 -95 66 C-105.42315072 65.87560654 -115.84482983 65.81082365 -126.26876831 65.82121754 C-131.1097775 65.82419109 -135.94892765 65.8069745 -140.78955078 65.74291992 C-145.46525102 65.68180206 -150.1382641 65.67463061 -154.8142395 65.70416832 C-156.59400762 65.70606549 -158.37390651 65.68883115 -160.15328979 65.65177345 C-170.17710459 65.19010233 -170.17710459 65.19010233 -178.83398438 69.43661499 C-180.8566613 72.2085909 -182.44427463 74.94880747 -184 78 C-191.94193925 86.93468165 -201.97711876 93.65783306 -214.125 94.44921875 C-215.97869106 94.50569292 -217.83304775 94.54335015 -219.6875 94.5625 C-220.56623779 94.57716309 -221.44497559 94.59182617 -222.3503418 94.60693359 C-228.69390463 94.50801096 -233.42878919 92.97189741 -239 90 C-239.73532959 89.61166992 -240.47065918 89.22333984 -241.22827148 88.82324219 C-246.56949415 85.89738364 -249.79011566 82.11665145 -253 77 C-253.38027344 76.39414063 -253.76054687 75.78828125 -254.15234375 75.1640625 C-260.66628111 63.51271793 -261.65788678 49.68023735 -258.4375 36.9375 C-254.55261857 24.58766641 -247.60515647 15.81309388 -236.5625 9.1875 C-226.95970492 4.19732956 -216.27591409 3.47423015 -205.9375 6.5625 C-194.28599275 10.88289093 -184.18927767 19.3798965 -178.4375 30.5 C-177 34 -177 34 -177 36 C-119.58 36 -62.16 36 -3 36 C-8.445 30.555 -8.445 30.555 -14 25 C-17.48868386 20.88335305 -19.95579345 17.40939631 -20.32421875 11.98828125 C-19.668768 7.96870978 -17.05910756 5.49750034 -14 3 C-9.27693966 0.33791144 -5.38826409 -0.94530949 0 0 Z " fill="#09365A" transform="translate(314,89)"/>
<path d="M0 0 C1.77368706 -0.02409439 1.77368706 -0.02409439 3.58320618 -0.04867554 C9.04065833 -0.09314661 14.49797563 -0.13470108 19.95556641 -0.15722656 C22.8256888 -0.17047676 25.69508505 -0.19815181 28.56494141 -0.23925781 C32.04159867 -0.2890524 35.51760559 -0.31340624 38.99460411 -0.32045364 C40.94421212 -0.33030066 42.89364982 -0.36444511 44.8429718 -0.39926147 C57.64653733 -0.36928064 67.92416604 3.90885607 77.12182617 12.77880859 C87.57056357 24.04757349 89.08574505 37.52962334 88.78979492 52.22802734 C88.25892908 63.87389671 83.96056877 73.57904311 75.85229492 81.88037109 C59.45694916 94.33910349 41.56965084 93.19287109 21.47729492 93.19287109 C21.47729492 108.37287109 21.47729492 123.55287109 21.47729492 139.19287109 C17.04291992 139.21349609 12.60854492 139.23412109 8.03979492 139.25537109 C5.93906616 139.2690271 5.93906616 139.2690271 3.79589844 139.28295898 C2.70204834 139.28545654 1.60819824 139.2879541 0.48120117 139.29052734 C-1.20767212 139.29838257 -1.20767212 139.29838257 -2.93066406 139.30639648 C-5.52270508 139.19287109 -5.52270508 139.19287109 -6.52270508 138.19287109 C-6.62122974 136.42358152 -6.64902596 134.65032645 -6.64968872 132.8782959 C-6.65250854 131.72562729 -6.65532837 130.57295868 -6.65823364 129.38536072 C-6.65620941 128.10947586 -6.65418518 126.833591 -6.65209961 125.51904297 C-6.65345364 124.17078097 -6.65523358 122.82251934 -6.65740967 121.47425842 C-6.66198381 117.80287082 -6.66019452 114.13151118 -6.65703058 110.46012306 C-6.65450688 106.62620592 -6.65684455 102.79229125 -6.65841675 98.95837402 C-6.66023841 92.51879443 -6.65783221 86.07922629 -6.65307617 79.63964844 C-6.64763356 72.18414947 -6.64939621 64.72867784 -6.65490258 57.27317953 C-6.65943379 50.88338534 -6.66008422 44.49359939 -6.65746391 38.10380411 C-6.65590118 34.28249062 -6.65570725 30.46119 -6.6590004 26.63987732 C-6.66187923 23.04813285 -6.65990319 19.45642378 -6.65410614 15.86468315 C-6.65214301 13.90991643 -6.65513235 11.95514672 -6.65823364 10.00038147 C-6.65541382 8.84771286 -6.65259399 7.69504425 -6.64968872 6.50744629 C-6.6493117 5.49938179 -6.64893467 4.49131729 -6.64854622 3.45270538 C-6.40484712 -0.92360248 -3.80584005 0.0468261 0 0 Z " fill="#08365A" transform="translate(390.522705078125,203.80712890625)"/>
<path d="M0 0 C1.02574883 0.00848969 1.02574883 0.00848969 2.07221985 0.01715088 C4.25329024 0.03951684 6.43270878 0.08970735 8.61328125 0.140625 C10.0930752 0.16069 11.57289495 0.17894078 13.05273438 0.1953125 C16.67761885 0.23938026 20.30153881 0.30840678 23.92578125 0.390625 C27.89727096 9.27744155 30.50421468 18.60499561 33.26702881 27.91589355 C34.71089636 32.77807718 36.17183495 37.63512244 37.6328125 42.4921875 C38.06466858 43.92884766 38.06466858 43.92884766 38.50524902 45.39453125 C41.70720796 56.02321127 45.11693506 66.57979296 48.55029297 77.13574219 C51.69300092 86.83329183 54.76847544 96.55271291 57.86328125 106.265625 C59.16358857 110.34650544 60.46442358 114.42721707 61.765625 118.5078125 C62.05482315 119.4159671 62.3440213 120.3241217 62.64198303 121.25979614 C62.9134465 122.11105072 63.18490997 122.9623053 63.46459961 123.83935547 C63.71603729 124.63210876 63.96747498 125.42486206 64.22653198 126.24163818 C64.82211597 128.07203286 65.46760024 129.8860675 66.12329102 131.69580078 C66.92578125 134.390625 66.92578125 134.390625 66.92578125 139.390625 C57.68578125 139.390625 48.44578125 139.390625 38.92578125 139.390625 C35.54636668 131.50532433 35.54636668 131.50532433 34.5390625 128.27734375 C34.32314453 127.58705078 34.10722656 126.89675781 33.88476562 126.18554688 C33.67142578 125.49009766 33.45808594 124.79464844 33.23828125 124.078125 C32.90086914 123.00594727 32.90086914 123.00594727 32.55664062 121.91210938 C30.92578125 116.65271182 30.92578125 116.65271182 30.92578125 114.390625 C24.87450412 114.410025 18.82468537 114.46168057 12.77392578 114.54321289 C10.71573839 114.56640602 8.6574321 114.58079168 6.59912109 114.58618164 C3.63954457 114.59546155 0.6818416 114.63643085 -2.27734375 114.68359375 C-3.19727112 114.6796611 -4.11719849 114.67572845 -5.06500244 114.67167664 C-10.33679067 114.75029112 -10.33679067 114.75029112 -14.59594727 117.66040039 C-15.90539151 120.07881741 -16.85325079 122.12658737 -17.5234375 124.78125 C-17.73162109 125.57273437 -17.93980469 126.36421875 -18.15429688 127.1796875 C-18.35474609 127.99179687 -18.55519531 128.80390625 -18.76171875 129.640625 C-20.97945435 138.2958606 -20.97945435 138.2958606 -22.07421875 139.390625 C-24.14683951 139.47829612 -26.22242169 139.49758373 -28.296875 139.48828125 C-29.55693359 139.48505859 -30.81699219 139.48183594 -32.11523438 139.47851562 C-33.45572984 139.47015903 -34.79622463 139.46169407 -36.13671875 139.453125 C-37.48111817 139.4481116 -38.82551935 139.44354842 -40.16992188 139.43945312 C-43.47139816 139.42761988 -46.77278678 139.41113471 -50.07421875 139.390625 C-49.54787067 131.45246904 -47.41502202 124.43070295 -44.953125 116.890625 C-44.53245983 115.58090077 -44.11261724 114.27091209 -43.69354248 112.9606781 C-42.80773064 110.19604469 -41.91699794 107.43306992 -41.02212524 104.6713562 C-39.62647199 100.36327313 -38.24274759 96.05142524 -36.86206055 91.73852539 C-36.63432858 91.02717343 -36.40659662 90.31582148 -36.17196369 89.5829134 C-35.71511441 88.15569536 -35.25831968 86.72845985 -34.80158043 85.30120659 C-34.12363883 83.18373052 -33.44470109 81.06657594 -32.76557922 78.94947815 C-29.55487638 68.93425903 -26.41158035 58.90112771 -23.38671875 48.828125 C-23.01611328 47.59811768 -22.64550781 46.36811035 -22.26367188 45.10083008 C-20.56263692 39.4298164 -18.88504541 33.75220195 -17.2233429 28.06956482 C-16.39651792 25.24606817 -15.56397809 22.42427054 -14.73104858 19.60256958 C-14.15617564 17.64440032 -13.59105837 15.68360711 -13.02661133 13.72241211 C-12.68267334 12.55460205 -12.33873535 11.38679199 -11.984375 10.18359375 C-11.53783569 8.64481567 -11.53783569 8.64481567 -11.08227539 7.07495117 C-8.69599776 0.72059842 -6.82534214 -0.11143416 0 0 Z " fill="#08365A" transform="translate(301.07421875,203.609375)"/>
<path d="M0 0 C4.31248609 -0.02886537 8.62494762 -0.04675255 12.9375 -0.0625 C14.16919922 -0.07087891 15.40089844 -0.07925781 16.66992188 -0.08789062 C17.83974609 -0.09111328 19.00957031 -0.09433594 20.21484375 -0.09765625 C21.84087524 -0.10551147 21.84087524 -0.10551147 23.49975586 -0.11352539 C26 0 26 0 27 1 C27.09852467 2.76928957 27.12632089 4.54254465 27.12698364 6.3145752 C27.12980347 7.4672438 27.13262329 8.61991241 27.13552856 9.80751038 C27.13350433 11.08339523 27.1314801 12.35928009 27.12939453 13.67382812 C27.13074856 15.02209012 27.1325285 16.37035175 27.13470459 17.71861267 C27.13927873 21.39000028 27.13748945 25.06135991 27.1343255 28.73274803 C27.1318018 32.56666517 27.13413947 36.40057984 27.13571167 40.23449707 C27.13753334 46.67407666 27.13512713 53.1136448 27.13037109 59.55322266 C27.12492848 67.00872163 27.12669114 74.46419326 27.1321975 81.91969156 C27.13672871 88.30948576 27.13737914 94.6992717 27.13475883 101.08906698 C27.1331961 104.91038048 27.13300217 108.7316811 27.13629532 112.55299377 C27.13917416 116.14473825 27.13719812 119.73644731 27.13140106 123.32818794 C27.12943793 125.28295467 27.13242727 127.23772437 27.13552856 129.19248962 C27.13129883 130.92149254 27.13129883 130.92149254 27.12698364 132.6854248 C27.12660662 133.6934893 27.12622959 134.7015538 27.12584114 135.74016571 C27 138 27 138 26 139 C24.15840977 139.09959621 22.31303033 139.13080411 20.46875 139.1328125 C19.34855469 139.13410156 18.22835937 139.13539063 17.07421875 139.13671875 C15.89472656 139.13285156 14.71523438 139.12898437 13.5 139.125 C11.73076172 139.13080078 11.73076172 139.13080078 9.92578125 139.13671875 C8.24548828 139.13478516 8.24548828 139.13478516 6.53125 139.1328125 C5.49548828 139.13168457 4.45972656 139.13055664 3.39257812 139.12939453 C1 139 1 139 0 138 C-0.09636838 136.21572813 -0.12187453 134.42760347 -0.12025452 132.64073181 C-0.12162918 131.47820389 -0.12300385 130.31567596 -0.12442017 129.11791992 C-0.12082489 127.83111328 -0.11722961 126.54430664 -0.11352539 125.21850586 C-0.11324352 123.85876976 -0.11340125 122.4990335 -0.1139679 121.13929749 C-0.11425587 117.43698222 -0.10835912 113.73469908 -0.10139394 110.03239131 C-0.09516043 106.16731219 -0.0945566 102.30223242 -0.09336853 98.43714905 C-0.09025521 91.11315318 -0.0820418 83.78917216 -0.07201904 76.46518284 C-0.06085794 68.12916552 -0.05534746 59.79314751 -0.05032361 51.45712459 C-0.03985919 34.30474112 -0.02225973 17.15237213 0 0 Z " fill="#073458" transform="translate(500,204)"/>
<path d="M0 0 C0.33 0 0.66 0 1 0 C1 18.48 1 36.96 1 56 C-187.1 56 -375.2 56 -569 56 C-569 37.85 -569 19.7 -569 1 C-567.22341929 4.55316141 -566.03512262 7.86115835 -564.8125 11.625 C-562.445713 18.31585827 -559.44209446 23.50254832 -555 29 C-554.45472656 29.70769531 -553.90945313 30.41539062 -553.34765625 31.14453125 C-544.04480493 42.59251064 -529.54393541 49.9734103 -515 52 C-508.86448253 52.29971232 -502.73484614 52.27892302 -496.5932312 52.26742554 C-494.70286888 52.27116435 -492.81250811 52.27576679 -490.92214978 52.28115618 C-485.73810296 52.29337313 -480.55412075 52.29312724 -475.37006283 52.29076743 C-469.77477973 52.29035893 -464.17951724 52.30140162 -458.58424377 52.31088257 C-447.62554672 52.32748671 -436.66687118 52.33299186 -425.70816259 52.33410732 C-416.79831912 52.33505814 -407.88848274 52.33917009 -398.97864151 52.34550858 C-377.81892595 52.36025487 -356.65921549 52.37255846 -335.49949455 52.37151146 C-334.48495389 52.37146472 -334.48495389 52.37146472 -333.44991747 52.37141704 C-330.02205822 52.37125083 -326.59419898 52.37105275 -323.16633974 52.37084763 C-322.48558945 52.37080774 -321.80483916 52.37076785 -321.10346008 52.37072675 C-319.72681701 52.37064587 -318.35017395 52.37056228 -316.97353088 52.37047596 C-295.56338144 52.36925092 -274.15329538 52.38425655 -252.74316406 52.41162109 C-228.67257385 52.44237354 -204.60203617 52.45952633 -180.53142083 52.45769465 C-167.79284861 52.45703115 -155.05434789 52.46250576 -142.31579208 52.48405075 C-131.4688189 52.5022791 -120.6219496 52.50659628 -109.77496772 52.4930319 C-104.24399637 52.4865105 -98.71322424 52.48635529 -93.18227196 52.5037384 C-88.1115657 52.51951064 -83.04121591 52.51656305 -77.97051813 52.49917014 C-76.14347826 52.49610937 -74.3164115 52.49969751 -72.48940335 52.51089029 C-50.38075238 52.63728251 -31.9175879 46.87397325 -15.42578125 31.61328125 C-7.27335378 22.83071446 -2.15664419 11.72544416 0 0 Z " fill="#04274D" transform="translate(569,459)"/>
<path d="M0 0 C24.06876791 -0.48137536 24.06876791 -0.48137536 32.875 4.6875 C36.83310892 8.99485383 39.18213333 13.54634337 39.625 19.4375 C39.37788875 24.92146893 36.53674345 28.96032514 33 33 C24.6572591 40.47551212 9.76220429 38 0 38 C0 25.46 0 12.92 0 0 Z " fill="#FAF9F5" transform="translate(412,231)"/>
<path d="M0 0 C0.33 0 0.66 0 1 0 C1 18.48 1 36.96 1 56 C-17.15 56 -35.3 56 -54 56 C-54.66 54.68 -55.32 53.36 -56 52 C-55.02160156 51.75765625 -54.04320312 51.5153125 -53.03515625 51.265625 C-34.99575163 46.69932871 -19.00723689 38.86289555 -8.625 22.625 C-4.45320498 15.42760011 -1.50536918 8.18453144 0 0 Z " fill="#08355A" transform="translate(569,459)"/>
<path d="M0 0 C1.77658071 3.55316141 2.96487738 6.86115835 4.1875 10.625 C6.554287 17.31585827 9.55790554 22.50254832 14 28 C14.54527344 28.70769531 15.09054687 29.41539062 15.65234375 30.14453125 C25.14450771 41.82547655 39.3456532 48.47338848 54 51 C54 51.66 54 52.32 54 53 C54.99 53.495 54.99 53.495 56 54 C52.9714581 55.00951397 50.95994658 55.121045 47.79418945 55.11352539 C46.18066589 55.11334412 46.18066589 55.11334412 44.5345459 55.11315918 C43.40552856 55.10804321 42.27651123 55.10292725 41.11328125 55.09765625 C40.07441772 55.09664917 39.0355542 55.09564209 37.96520996 55.09460449 C34.08096209 55.0893687 30.19672995 55.07540745 26.3125 55.0625 C17.629375 55.041875 8.94625 55.02125 0 55 C0 36.85 0 18.7 0 0 Z " fill="#08355A" transform="translate(0,460)"/>
<path d="M0 0 C4.20621897 1.61496911 6.75759582 3.58449412 8.92578125 7.50390625 C10.62750392 13.81354032 10.13738995 18.78801958 7.16796875 24.59375 C5.45315711 27.23067733 3.5834997 28.84283222 0.92578125 30.50390625 C0.30703125 30.91640625 -0.31171875 31.32890625 -0.94921875 31.75390625 C-6.36518835 33.66542493 -11.79587838 32.49233435 -17.0546875 30.62890625 C-20.54481441 28.68469629 -21.50184296 26.10726743 -23.07421875 22.50390625 C-23.40421875 21.84390625 -23.73421875 21.18390625 -24.07421875 20.50390625 C-24.89813228 13.912598 -22.70041335 8.9924671 -19.07421875 3.50390625 C-16.38671875 1.44140625 -16.38671875 1.44140625 -14.07421875 0.50390625 C-9.94035756 -1.56302434 -4.41507154 -1.05595873 0 0 Z " fill="#F7F7F4" transform="translate(309.07421875,388.49609375)"/>
<path d="M0 0 C3.98419731 2.33037956 5.82390168 4.66378225 7.3125 8.9375 C8.59722318 14.05970799 8.92960361 18.41523163 6.75 23.3125 C4.50700534 27.05587622 2.3881464 29.15903612 -1.6875 30.9375 C-9.62480855 32.49706702 -14.79208236 30.34883241 -21.375 25.95703125 C-24.8878934 22.88918347 -27.12566878 19.42900062 -27.6875 14.75 C-27.61626441 10.89680216 -26.68695717 9.93696322 -23.88671875 7.16796875 C-16.25835745 1.00752211 -10.09639752 -2.90913149 0 0 Z " fill="#F8F7F5" transform="translate(104.6875,124.0625)"/>
<path d="M0 0 C18.81 0 37.62 0 57 0 C57 16.83 57 33.66 57 51 C55.15170551 48.22755827 54.32638836 46.18674421 53.3125 43.0625 C47.6448288 27.36263709 37.11089712 14.47755734 22 7 C14.86881562 4.05021371 7.66687648 1.92395691 0 1 C0 0.67 0 0.34 0 0 Z " fill="#08355A" transform="translate(513,0)"/>
<path d="M0 0 C17.82 0 35.64 0 54 0 C54 0.33 54 0.66 54 1 C53.319375 1.12375 52.63875 1.2475 51.9375 1.375 C34.38016752 5.11060265 19.45565125 14.1892361 9.49609375 29.35546875 C5.65168651 36.15093534 2.89123525 43.435059 1 51 C0.67 51 0.34 51 0 51 C0 34.17 0 17.34 0 0 Z " fill="#08355A" transform="translate(0,0)"/>
<path d="M0 0 C0.66 0 1.32 0 2 0 C2.24492187 0.79535156 2.48984375 1.59070313 2.7421875 2.41015625 C4.9649045 9.57650245 7.23036589 16.72649819 9.55859375 23.859375 C10.01518523 25.26162157 10.4717278 26.66388408 10.92822266 28.06616211 C11.61966616 30.18985526 12.31265794 32.31298022 13.01043701 34.43460083 C13.67360052 36.45124891 14.33139126 38.46958249 14.98828125 40.48828125 C15.37540283 41.66946533 15.76252441 42.85064941 16.16137695 44.06762695 C17 47 17 47 17 50 C7.1 50 -2.8 50 -13 50 C-11.71476428 42.93120355 -10.3794431 36.24453795 -8.3984375 29.39453125 C-8.1571109 28.54444992 -7.9157843 27.69436859 -7.66714478 26.81852722 C-6.90795401 24.14843819 -6.1416254 21.48046274 -5.375 18.8125 C-4.85368928 16.98385999 -4.33285199 15.15508493 -3.8125 13.32617188 C-2.54712119 8.88253846 -1.27534425 4.44078306 0 0 Z " fill="#F8F7F5" transform="translate(308,241)"/>
<path d="M0 0 C4.82159389 2.36531021 7.70321747 5.14142156 10 10 C10.77761132 15.32425713 10.70046343 19.57313005 8.3125 24.4375 C2.19858703 31.21237654 2.19858703 31.21237654 -3.375 31.5625 C-8.41946936 31.30273497 -11.49884766 29.57048209 -15 26 C-18.40539788 22.12256677 -20.42962132 18.70139677 -20.1875 13.4375 C-19.3047689 8.53155216 -16.7633957 5.18169988 -13 2 C-8.77756503 -0.56086827 -4.81951709 -0.67054151 0 0 Z " fill="#F8F8F5" transform="translate(128,280)"/>
<path d="M0 0 C5.28 0 10.56 0 16 0 C16 0.33 16 0.66 16 1 C15.20335938 1.19335938 14.40671875 1.38671875 13.5859375 1.5859375 C5.7134296 3.51794536 5.7134296 3.51794536 -2 6 C-1.49396008 3.83125748 -1.00016187 2.00032373 0 0 Z " fill="#092B51" transform="translate(38,0)"/>
<path d="M0 0 C0.66 0.99 1.32 1.98 2 3 C1.566875 3.804375 1.13375 4.60875 0.6875 5.4375 C-1.25251495 9.53308712 -2.64718382 13.68250154 -4 18 C-5.5411298 14.04963563 -4.39859394 11.23429099 -3.125 7.3125 C-2.75632812 6.15363281 -2.38765625 4.99476563 -2.0078125 3.80078125 C-1 1 -1 1 0 0 Z " fill="#0E254A" transform="translate(270,279)"/>
<path d="M0 0 C0.66 0 1.32 0 2 0 C2 1.98 2 3.96 2 6 C1.34 6 0.68 6 0 6 C-0.12375 6.969375 -0.2475 7.93875 -0.375 8.9375 C-0.58125 9.948125 -0.7875 10.95875 -1 12 C-1.99 12.495 -1.99 12.495 -3 13 C-2.01 8.71 -1.02 4.42 0 0 Z " fill="#EAF0F0" transform="translate(303,258)"/>
<path d="M0 0 C0.33 0 0.66 0 1 0 C1 1.65 1 3.3 1 5 C2.98 5 4.96 5 7 5 C7 5.33 7 5.66 7 6 C4.36 6.33 1.72 6.66 -1 7 C-0.67 4.69 -0.34 2.38 0 0 Z " fill="#06254A" transform="translate(252,336)"/>
<path d="M0 0 C2.18975773 3.28463659 2.99806563 6.20696275 4 10 C0.98531412 7.99020941 0.16210818 7.29263985 -1 4 C-0.625 1.75 -0.625 1.75 0 0 Z " fill="#E9EEEF" transform="translate(320,276)"/>
<path d="M0 0 C0.33 0 0.66 0 1 0 C1.39253254 4.44870215 0.15305957 7.14243493 -2 11 C-2.95465783 8.83032311 -3.14401212 7.43671207 -2.3984375 5.17578125 C-1.64129615 3.4315257 -0.82390802 1.71372869 0 0 Z " fill="#061D43" transform="translate(86,274)"/>
</svg>
